<?xml version="1.0" encoding="utf-8"?>
<!-- Generator: Adobe Illustrator 14.0.0, SVG Export Plug-In . SVG Version: 6.00 Build 43363)  -->
<!DOCTYPE svg PUBLIC "-//W3C//DTD SVG 1.1//EN" "http://www.w3.org/Graphics/SVG/1.1/DTD/svg11.dtd">
<svg version="1.1" id="Layer_1" xmlns="http://www.w3.org/2000/svg" xmlns:xlink="http://www.w3.org/1999/xlink" x="0px" y="0px"
	 width="50px" height="50px" viewBox="0 0 50 50" enable-background="new 0 0 50 50" xml:space="preserve">
<g>
	<g>
		<rect x="3.5" y="3.5" fill="#FF6000" width="43" height="43"/>
		<path fill="#C40000" d="M43,7v36H7V7H43 M50,0H0v50h50V0L50,0z"/>
	</g>
	<g>
		<path fill="#FFF573" d="M25.641,29.754h-1.254c-0.134-2.231-0.571-4.928-1.313-8.098l-1.483-6.396
			c-0.894-3.833-1.34-6.582-1.34-8.243c0-1.507,0.438-2.719,1.313-3.639C22.438,2.458,23.578,2,24.986,2
			c1.37,0,2.508,0.464,3.409,1.394C29.301,4.321,29.75,5.5,29.75,6.929c0,1.486-0.477,4.265-1.426,8.332l-1.512,6.396
			C26.279,23.925,25.887,26.625,25.641,29.754z"/>
		<path fill="#FFF573" d="M24.999,32.338c0.979,0,1.817,0.355,2.511,1.07c0.695,0.715,1.041,1.582,1.041,2.602
			c0,1.006-0.346,1.867-1.041,2.58c-0.693,0.715-1.531,1.07-2.511,1.07c-0.977,0-1.814-0.355-2.509-1.07
			c-0.694-0.713-1.041-1.574-1.041-2.58c0-1.004,0.343-1.867,1.03-2.59C23.167,32.699,24.007,32.338,24.999,32.338z"/>
	</g>
</g>
</svg>
