<?xml version="1.0" encoding="utf-8"?>
<!-- Generator: Adobe Illustrator 14.0.0, SVG Export Plug-In . SVG Version: 6.00 Build 43363)  -->
<!DOCTYPE svg PUBLIC "-//W3C//DTD SVG 1.1//EN" "http://www.w3.org/Graphics/SVG/1.1/DTD/svg11.dtd">
<svg version="1.1" xmlns="http://www.w3.org/2000/svg" xmlns:xlink="http://www.w3.org/1999/xlink" x="0px" y="0px" width="456px"
	 height="292px" viewBox="0 0 456 292" enable-background="new 0 0 456 292" xml:space="preserve">
<g id="Background">
</g>
<g id="Foreground">
	<rect y="2" fill="#FFFFFF" width="456" height="290"/>
	<path d="M43.125,127.874c0,0,26.625,3,26.625-20.563v-0.374c0-23.563-26.625-20.563-26.625-20.563V127.874z M31.186,75.109h20.74
		c12.456,0,30.724,11.311,30.724,31.422l-0.002,0.238l0.002,0.237c0,20.111-18.268,31.422-30.724,31.422h-20.74V75.109z"/>
	<rect x="88.096" y="75.109" fill-rule="evenodd" clip-rule="evenodd" width="12.669" height="63.422"/>
	<path fill-rule="evenodd" clip-rule="evenodd" d="M139.605,89.736c0,0-4.176-4.802-9.775-4.802s-8.835,3.72-8.835,6.434
		c0,2.714-0.104,4.242,7.896,7.583s19.758,5.741,19.758,19.862s-11.065,21.286-21.011,21.286c-15.687,0-22.748-12.033-22.748-12.033
		l7.896-7.896c0,0,5.01,8.417,13.741,8.417c8.73,0,9.215-6.643,9.215-8.835c0-3.236-1.879-6.435-7.27-8.418
		s-20.138-3.967-20.138-18.192c0-12.765,9.54-19.094,20.242-19.094c9.566,0,17.879,7.478,17.879,7.478L139.605,89.736z"/>
	<path fill-rule="evenodd" clip-rule="evenodd" d="M201.292,92.365c-3.92-4.046-9.32-6.992-15.399-6.992
		c-11.91,0-21.565,9.655-21.565,21.565s9.655,21.565,21.565,21.565c6.028,0,11.494-2.914,15.407-6.901l-0.007,14.944
		c-4.61,2.407-9.838,3.752-15.399,3.752c-18.424,0-33.36-14.936-33.36-33.36s14.936-33.36,33.36-33.36
		c5.575,0,10.781,1.367,15.399,3.785V92.365z"/>
	<polygon points="270.352,75.109 283.996,75.109 301.451,116.66 317.905,75.109 331.55,75.109 304.88,140.145 297.022,140.145 	"/>
	<path d="M391.965,85.681v18.508h6.811c5.246,0,8.559-4.727,8.559-8.856v-0.795c0-4.129-3.313-8.856-8.559-8.856H391.965z
		 M379.601,75.109h20.673c6.602,0,19.73,3.593,19.73,18.686c0,15.092-13.58,18.218-13.58,18.218l19.362,26.519h-15.396
		l-17.109-25.309h-1.311v25.309h-12.37V75.109z"/>
	<polygon points="370.397,100.109 370.397,111.292 348.854,111.292 348.854,127.348 371.397,127.348 371.397,138.531 
		336.273,138.531 336.273,75.109 371.397,75.109 371.397,86.292 348.854,86.292 348.854,100.109 	"/>
	
		<rect x="2" y="2" fill-rule="evenodd" clip-rule="evenodd" fill="none" stroke="#000000" stroke-width="4" stroke-miterlimit="3.8637" width="452.5" height="288"/>
</g>
<g id="Layer_1">
	<path fill-rule="evenodd" clip-rule="evenodd" fill="#FF6600" d="M100.037,288.388c0,0,130.495-23.168,215.495-57.668
		c84.625-31.393,137.3-69.488,137.3-69.488v127.156H100.037z"/>
	<path fill-rule="evenodd" clip-rule="evenodd" d="M140.151,154.739l13.882,13.334c0.534,0.511,0.93,0.915,1.187,1.212
		c0.257,0.296,0.663,0.782,1.217,1.457v-15.155h3.239v22.694l-14.174-13.589c-0.775-0.733-1.479-1.549-2.112-2.445v15.186h-3.239
		V154.739z"/>
	<polygon fill-rule="evenodd" clip-rule="evenodd" points="170.681,155.587 182.873,155.587 182.873,158.611 174.226,158.611 
		174.226,164.081 182.873,164.081 182.873,167.197 174.226,167.197 174.226,174.255 182.873,174.255 182.873,177.433 
		170.681,177.433 	"/>
	<polygon fill-rule="evenodd" clip-rule="evenodd" points="198.911,177.541 195.366,177.541 195.366,158.484 190.561,158.484 
		190.561,155.459 203.686,155.459 203.686,158.484 198.911,158.484 	"/>
	<path fill-rule="evenodd" clip-rule="evenodd" d="M214.776,155.584l4.131,11.029c0.224,0.591,0.427,1.161,0.609,1.711
		c0.183,0.55,0.366,1.13,0.548,1.741c0.244-0.793,0.493-1.573,0.747-2.336l0.442-1.324l4.397-11.652l4.612,11.864
		c0.422,1.134,0.805,2.292,1.146,3.473c0.081-0.387,0.231-0.917,0.453-1.589c0.221-0.672,0.422-1.273,0.603-1.803l4.113-11.115
		l3.554,0.003l-8.464,22.693l-4.981-12.458c-0.448-1.1-0.805-2.118-1.069-3.055c-0.326,1.161-0.672,2.2-1.039,3.117l-4.889,12.397
		l-8.434-22.694L214.776,155.584z"/>
	<path fill-rule="evenodd" clip-rule="evenodd" d="M265.954,174.679c-2.301,2.244-5.051,3.365-8.25,3.365
		c-1.589,0-3.086-0.285-4.491-0.856s-2.668-1.403-3.789-2.494c-1.12-1.091-1.966-2.325-2.536-3.702
		c-0.57-1.377-0.855-2.851-0.855-4.422c0-3.202,1.136-5.915,3.407-8.138c2.271-2.224,5.026-3.335,8.265-3.335
		c3.22,0,5.97,1.116,8.25,3.35c2.282,2.233,3.423,4.941,3.423,8.123C269.376,169.753,268.236,172.456,265.954,174.679z
		 M263.327,160.755c-1.528-1.592-3.402-2.388-5.623-2.388c-2.22,0-3.91,0.592-5.072,1.775c-1.161,1.184-1.935,2.271-2.322,3.261
		c-0.387,0.989-0.58,2.045-0.58,3.167c0,2.265,0.773,4.194,2.322,5.786c1.548,1.592,3.433,2.388,5.652,2.388
		c2.2,0,4.079-0.801,5.638-2.403c1.559-1.602,2.338-3.525,2.338-5.771C265.679,164.306,264.895,162.367,263.327,160.755z"/>
	<path fill-rule="evenodd" clip-rule="evenodd" d="M281.014,177.433h-3.331v-21.846h4.95c1.323,0,2.403,0.081,3.238,0.245
		c0.836,0.163,1.579,0.499,2.231,1.008c0.651,0.509,1.161,1.171,1.527,1.985c0.366,0.815,0.55,1.742,0.55,2.781
		c0,3.524-1.67,5.49-5.011,5.897l7.517,9.931l-3.992-0.009l-7.281-9.771l-0.398,0.002V177.433z M281.87,164.906
		c1.73,0,2.943-0.184,3.636-0.55s1.039-1.182,1.039-2.444c0-1.284-0.356-2.149-1.07-2.597c-0.713-0.448-1.914-0.672-3.604-0.672
		h-0.642v6.264H281.87z"/>
	<polygon fill-rule="evenodd" clip-rule="evenodd" points="300.225,155.587 303.769,155.587 303.769,164.644 311.625,155.588 
		315.961,155.587 307.314,165.303 317,177.433 312.398,177.448 303.769,166.3 303.769,177.433 300.225,177.433 	"/>
	<path fill-rule="evenodd" clip-rule="evenodd" d="M425.268,83.699v-5.302h1.803c0.454,0,0.783,0.047,0.989,0.143
		c0.205,0.095,0.37,0.265,0.493,0.508c0.124,0.243,0.186,0.521,0.186,0.835c0,0.398-0.093,0.726-0.279,0.985
		c-0.187,0.259-0.465,0.422-0.836,0.49c0.184,0.136,0.336,0.284,0.456,0.445s0.281,0.449,0.485,0.861l0.518,1.035h-1.023
		l-0.614-1.157c-0.221-0.412-0.372-0.671-0.453-0.777c-0.081-0.107-0.168-0.18-0.259-0.22c-0.09-0.04-0.234-0.06-0.432-0.06h-0.175
		v2.214H425.268z M426.126,80.64h0.634c0.41,0,0.667-0.021,0.77-0.065c0.102-0.043,0.182-0.119,0.24-0.225
		c0.058-0.106,0.087-0.239,0.087-0.398c0-0.179-0.038-0.323-0.114-0.433c-0.077-0.11-0.184-0.179-0.323-0.208
		c-0.069-0.012-0.277-0.018-0.625-0.018h-0.668V80.64z"/>
	
		<circle fill-rule="evenodd" clip-rule="evenodd" fill="none" stroke="#000000" stroke-width="1.234" stroke-linecap="round" stroke-miterlimit="3.8637" cx="426.804" cy="81.23" r="4.319"/>
	<radialGradient id="SVGID_1_" cx="239.6821" cy="107.1328" r="32.8904" gradientUnits="userSpaceOnUse">
		<stop  offset="0" style="stop-color:#FFFFFF"/>
		<stop  offset="1" style="stop-color:#FF6600"/>
	</radialGradient>
	<circle fill-rule="evenodd" clip-rule="evenodd" fill="url(#SVGID_1_)" cx="239.682" cy="107.133" r="32.89"/>
</g>
<g id="Guides" display="none">
</g>
</svg>
