<?xml version="1.0" encoding="utf-8"?>
<!-- Generator: Adobe Illustrator 14.0.0, SVG Export Plug-In . SVG Version: 6.00 Build 43363)  -->
<!DOCTYPE svg PUBLIC "-//W3C//DTD SVG 1.1//EN" "http://www.w3.org/Graphics/SVG/1.1/DTD/svg11.dtd">
<svg version="1.1" id="Layer_1" xmlns="http://www.w3.org/2000/svg" xmlns:xlink="http://www.w3.org/1999/xlink" x="0px" y="0px"
	 width="62px" height="60.143px" viewBox="0 0 62 60.143" enable-background="new 0 0 62 60.143" xml:space="preserve">
<linearGradient id="SVGID_1_" gradientUnits="userSpaceOnUse" x1="237.0005" y1="-296.0002" x2="237.0005" y2="-235.8577" gradientTransform="matrix(1 0 0 -1 -206 -235.8579)">
	<stop  offset="0" style="stop-color:#81D4F7"/>
	<stop  offset="1" style="stop-color:#D6EEEE"/>
</linearGradient>
<path fill="url(#SVGID_1_)" d="M62,52.176c0,4.399-3.566,7.967-7.967,7.967H7.966c-4.4,0-7.966-3.567-7.966-7.967V7.966
	C0,3.565,3.566,0,7.966,0h46.068C58.433,0,62,3.565,62,7.966V52.176z"/>
<path fill="#FFFFFF" stroke="#F26122" stroke-width="1.5" d="M51.106,33.688c0-4.459-2.998-7.829-8.203-7.829
	c-3.393,0-6.232,1.375-8.289,3.438c-1.213-1.188-2.865-1.967-4.805-2.43l10.582-8.052l1.498-5.433H19.743l-1.686,6.181h12.406
	l-9.643,7.725l0.279,4.495h2.014c3.979,0,6.414,1.358,6.414,3.886c0,2.39-2.668,4.588-6.18,4.588c-3.418,0-5.385-1.356-7.117-3.696
	l-5.337,3.932c2.153,3.697,5.992,6.226,12.126,6.226c3.83,0,7.209-1.226,9.662-3.251c1.575,2.107,4.19,3.292,7.6,3.292
	s5.916-1.16,7.716-2.658l-2.621-3.521c-1.65,1.162-2.959,1.613-4.457,1.613c-2.998,0-4.42-1.574-4.607-3.935h13.783
	C50.731,36.72,51.106,35.11,51.106,33.688z M45.562,34.698h-8.726c0.937-2.547,3.033-4.27,5.617-4.27
	c2.322,0,3.295,1.311,3.295,2.959C45.749,33.874,45.674,34.323,45.562,34.698z"/>
</svg>
