<?xml version="1.0" encoding="utf-8"?>
<!-- Generator: Adobe Illustrator 14.0.0, SVG Export Plug-In . SVG Version: 6.00 Build 43363)  -->
<!DOCTYPE svg PUBLIC "-//W3C//DTD SVG 1.1//EN" "http://www.w3.org/Graphics/SVG/1.1/DTD/svg11.dtd">
<svg version="1.1" id="Layer_1" xmlns="http://www.w3.org/2000/svg" xmlns:xlink="http://www.w3.org/1999/xlink" x="0px" y="0px"
	 width="55px" height="55px" viewBox="0 0 40 40" enable-background="new 0 0 40 40" xml:space="preserve">
<g>
	<rect fill="#413F3D" width="40" height="40"/>
	<g>
		<polygon fill="#FFFFFF" points="33.052,16.922 33.052,18.185 28.761,18.185 28.761,22.471 27.497,22.471 27.497,18.185 
			23.212,18.185 23.212,16.922 27.497,16.922 27.497,12.631 28.761,12.631 28.761,16.922 		"/>
		<path fill="#FFFFFF" d="M17.298,22.931c0-1.436,3.158-1.853,3.158-5.226c0-2.024-0.188-3.244-1.781-3.962
			c0-0.502,2.814-0.172,2.814-1.11h-6.164c0,0-6.24,0.153-6.24,5.436c0,5.283,5.455,4.67,5.455,4.67v1.34
			c0,0.54,0.732,0.358,0.824,1.454c-0.369,0-7.58-0.19-7.58,4.594c0,4.785,6.354,4.557,6.354,4.557s7.352,0.334,7.352-5.609
			C21.489,25.515,17.298,24.366,17.298,22.931 M11.972,18.375c-0.576-2.122,0.184-4.175,1.699-4.587
			c1.516-0.413,3.211,0.973,3.787,3.095c0.578,2.122-0.182,4.176-1.697,4.588S12.55,20.497,11.972,18.375 M15.128,33.154
			c-2.543,0.174-4.707-1.191-4.832-3.047c-0.127-1.855,1.834-3.5,4.377-3.672c2.545-0.172,4.709,1.191,4.836,3.047
			C19.634,31.34,17.673,32.982,15.128,33.154"/>
	</g>
	<g>
		<rect x="9.98" fill="#346AE4" width="10.018" height="6.583"/>
		<rect x="19.998" fill="#0A9D31" width="10.175" height="6.583"/>
		<rect fill="#D51E1D" width="9.98" height="6.583"/>
		<rect x="30.173" fill="#ECB420" width="9.827" height="6.583"/>
	</g>
</g>
</svg>
