<?xml version="1.0" encoding="utf-8"?>
<!-- Generator: Adobe Illustrator 14.0.0, SVG Export Plug-In . SVG Version: 6.00 Build 43363)  -->
<!DOCTYPE svg PUBLIC "-//W3C//DTD SVG 1.1//EN" "http://www.w3.org/Graphics/SVG/1.1/DTD/svg11.dtd">
<svg version="1.1" id="Layer_1" xmlns="http://www.w3.org/2000/svg" xmlns:xlink="http://www.w3.org/1999/xlink" x="0px" y="0px"
	 width="271.922px" height="51.708px" viewBox="0.76 0.651 271.922 51.708" enable-background="new 0.76 0.651 271.922 51.708"
	 xml:space="preserve">
<path fill="#FFFFFF" stroke="#FF6000" stroke-width="2.25" d="M61.561,31.762c0-6.565-4.414-11.53-12.083-11.53
	c-4.996,0-9.18,2.026-12.208,5.063c-1.787-1.749-4.222-2.898-7.078-3.579L45.778,9.856l2.206-8H15.365l-2.482,9.103h18.275
	L16.952,22.336l0.413,6.621h2.965c5.861,0,9.448,2,9.448,5.722c0,3.519-3.931,6.76-9.103,6.76c-5.035,0-7.93-1.999-10.482-5.447
	l-7.861,5.793c3.172,5.447,8.827,9.172,17.86,9.172c5.643,0,10.618-1.807,14.231-4.791c2.321,3.105,6.173,4.85,11.193,4.85
	s8.717-1.709,11.364-3.916l-3.861-5.187c-2.428,1.71-4.357,2.373-6.566,2.373c-4.412,0-6.508-2.317-6.785-5.793H60.07
	C61.008,36.229,61.561,33.856,61.561,31.762z M53.394,33.25H40.542c1.379-3.751,4.467-6.29,8.275-6.29
	c3.42,0,4.854,1.932,4.854,4.36C53.672,32.036,53.561,32.698,53.394,33.25z"/>
<g>
	<path fill="#FF6000" d="M65.761,9.484h8.73v41.924h-8.73V9.484z"/>
	<path fill="#FF6000" d="M78.337,36.189v-0.115c0-8.787,6.26-16.023,15.219-16.023c10.279,0,14.989,7.982,14.989,16.712
		c0,0.688-0.057,1.493-0.115,2.297H87.008c0.861,3.963,3.618,6.03,7.523,6.03c2.929,0,5.054-0.919,7.466-3.159l4.996,4.422
		c-2.872,3.56-7.006,5.743-12.576,5.743C85.172,52.097,78.337,45.608,78.337,36.189z M100.046,33.605
		c-0.517-3.906-2.814-6.548-6.49-6.548c-3.618,0-5.972,2.585-6.661,6.548H100.046z"/>
	<path fill="#FF6000" d="M112.162,20.625h8.729v4.365c2.01-2.584,4.652-4.939,9.074-4.939c4.02,0,7.064,1.781,8.672,4.881
		c2.699-3.159,5.915-4.881,10.108-4.881c6.488,0,10.394,3.905,10.394,11.314v20.042h-8.73V34.236c0-4.135-1.836-6.26-5.111-6.26
		c-3.272,0-5.283,2.125-5.283,6.26v17.171h-8.729V34.236c0-4.135-1.838-6.26-5.111-6.26c-3.274,0-5.284,2.125-5.284,6.26v17.171
		h-8.729V20.625z"/>
	<path fill="#FF6000" d="M162.354,36.189v-0.115c0-8.787,6.259-16.023,15.219-16.023c10.279,0,14.988,7.982,14.988,16.712
		c0,0.688-0.057,1.493-0.114,2.297h-21.421c0.861,3.963,3.617,6.03,7.522,6.03c2.93,0,5.054-0.919,7.466-3.159l4.996,4.422
		c-2.871,3.56-7.006,5.743-12.578,5.743C169.187,52.097,162.354,45.608,162.354,36.189z M184.063,33.605
		c-0.519-3.906-2.814-6.548-6.489-6.548c-3.618,0-5.974,2.585-6.663,6.548H184.063z"/>
	<path fill="#FF6000" d="M196.179,20.625h8.729v4.365c2.012-2.584,4.596-4.939,9.018-4.939c6.604,0,10.453,4.365,10.453,11.428
		v19.928h-8.731V34.236c0-4.135-1.952-6.26-5.283-6.26c-3.33,0-5.456,2.125-5.456,6.26v17.171h-8.729V20.625z"/>
	<path fill="#FF6000" d="M230.52,42.679V28.091h-3.674v-7.466h3.674v-7.867h8.729v7.867h7.237v7.466h-7.237v13.151
		c0,2.011,0.862,2.986,2.813,2.986c1.609,0,3.044-0.401,4.307-1.091v7.008c-1.838,1.09-3.962,1.779-6.891,1.779
		C234.137,51.925,230.52,49.8,230.52,42.679z"/>
	<path fill="#FF6000" d="M247.635,47.331l3.731-5.744c3.331,2.412,6.836,3.677,9.706,3.677c2.526,0,3.675-0.919,3.675-2.299v-0.113
		c0-1.896-2.985-2.528-6.374-3.562c-4.307-1.264-9.189-3.273-9.189-9.246v-0.115c0-6.26,5.055-9.763,11.257-9.763
		c3.905,0,8.155,1.321,11.486,3.561l-3.332,6.03c-3.044-1.781-6.088-2.871-8.327-2.871c-2.126,0-3.217,0.918-3.217,2.125v0.114
		c0,1.724,2.929,2.527,6.261,3.676c4.307,1.436,9.303,3.503,9.303,9.131v0.115c0,6.834-5.11,9.935-11.772,9.935
		C256.536,51.981,251.711,50.547,247.635,47.331z"/>
</g>
</svg>
