<?xml version="1.0" encoding="utf-8"?>
<!-- Generator: Adobe Illustrator 14.0.0, SVG Export Plug-In . SVG Version: 6.00 Build 43363)  -->
<!DOCTYPE svg PUBLIC "-//W3C//DTD SVG 1.1//EN" "http://www.w3.org/Graphics/SVG/1.1/DTD/svg11.dtd">
<svg version="1.1" id="Layer_1" xmlns="http://www.w3.org/2000/svg" xmlns:xlink="http://www.w3.org/1999/xlink" x="0px" y="0px"
	 width="134.333px" height="111px" viewBox="0 0 134.333 111" enable-background="new 0 0 134.333 111" xml:space="preserve">
<path fill="#FFFFFF" stroke="#FF6000" stroke-width="4" d="M131.536,67.08c0-14.272-9.597-25.063-26.263-25.063
	c-10.858,0-19.95,4.402-26.535,11.004c-3.885-3.801-9.178-6.297-15.385-7.777l33.875-25.779l4.797-17.388H31.126l-5.397,19.782
	h39.723L34.575,46.591l0.899,14.392h6.445c12.74,0,20.537,4.348,20.537,12.438c0,7.646-8.545,14.688-19.787,14.688
	c-10.944,0-17.237-4.348-22.784-11.842L2.798,88.859c6.894,11.842,19.185,19.936,38.819,19.936c12.266,0,23.079-3.928,30.93-10.412
	c5.047,6.748,13.422,10.541,24.332,10.541c10.912,0,18.945-3.715,24.699-8.512l-8.391-11.273c-5.279,3.719-9.477,5.158-14.271,5.158
	c-9.596,0-14.147-5.041-14.752-12.592h44.129C130.333,76.789,131.536,71.633,131.536,67.08z M113.786,70.313H85.851
	c2.993-8.149,9.709-13.668,17.985-13.668c7.431,0,10.547,4.197,10.547,9.476C114.383,67.674,114.145,69.115,113.786,70.313z"/>
</svg>
