<?xml version="1.0" encoding="utf-8"?>
<!-- Generator: Adobe Illustrator 17.0.0, SVG Export Plug-In . SVG Version: 6.00 Build 0)  -->
<!DOCTYPE svg PUBLIC "-//W3C//DTD SVG 1.1//EN" "http://www.w3.org/Graphics/SVG/1.1/DTD/svg11.dtd">
<svg version="1.1" id="Layer_1" xmlns="http://www.w3.org/2000/svg" xmlns:xlink="http://www.w3.org/1999/xlink" x="0px" y="0px"
	 width="200px" height="136px" viewBox="0 0 109.146 73.656" enable-background="new 0 0 109.146 73.656"
	 xml:space="preserve">
<g>
	<g>
		<path fill="none" stroke="#00B1E0" stroke-width="4.75" stroke-miterlimit="10" d="M3.447,51.719h4.532l3.982,13.02l4.312-13.074
			h3.626l4.312,13.074l3.982-13.02h4.422l-6.563,19.364h-3.681l-4.34-12.58l-4.339,12.58h-3.681L3.447,51.719z"/>
		<path fill="none" stroke="#00B1E0" stroke-width="4.75" stroke-miterlimit="10" d="M34.619,56.224h4.174v2.966
			c0.852-2.032,2.226-3.351,4.697-3.24v4.367h-0.22c-2.774,0-4.478,1.675-4.478,5.19v5.438h-4.174V56.224z"/>
		<path fill="none" stroke="#00B1E0" stroke-width="4.75" stroke-miterlimit="10" d="M46.455,50.896h4.395v3.707h-4.395V50.896z
			 M46.564,56.224h4.175v14.722h-4.175V56.224z"/>
		<path fill="none" stroke="#00B1E0" stroke-width="4.75" stroke-miterlimit="10" d="M55.628,66.771v-6.977H53.87v-3.57h1.758
			v-3.763h4.175v3.763h3.46v3.57h-3.46v6.29c0,0.961,0.412,1.428,1.346,1.428c0.769,0,1.455-0.191,2.06-0.521v3.351
			c-0.879,0.522-1.896,0.852-3.296,0.852C57.357,71.192,55.628,70.176,55.628,66.771z"/>
		<path fill="none" stroke="#00B1E0" stroke-width="4.75" stroke-miterlimit="10" d="M65.898,63.667v-0.055
			c0-4.202,2.994-7.663,7.278-7.663c4.917,0,7.169,3.817,7.169,7.992c0,0.33-0.027,0.714-0.055,1.099H70.046
			c0.412,1.896,1.73,2.884,3.599,2.884c1.4,0,2.416-0.439,3.57-1.511l2.39,2.115c-1.374,1.703-3.352,2.747-6.016,2.747
			C69.167,71.275,65.898,68.171,65.898,63.667z M76.281,62.431c-0.248-1.867-1.347-3.131-3.104-3.131
			c-1.729,0-2.856,1.236-3.186,3.131H76.281z"/>
		<path fill="none" stroke="#00B1E0" stroke-width="4.75" stroke-miterlimit="10" d="M83.723,56.224h4.176v2.966
			c0.851-2.032,2.225-3.351,4.696-3.24v4.367h-0.22c-2.774,0-4.477,1.675-4.477,5.19v5.438h-4.176V56.224z"/>
		<path fill="none" stroke="#00B1E0" stroke-width="4.75" stroke-miterlimit="10" d="M94.323,68.995l1.785-2.746
			c1.594,1.153,3.269,1.758,4.642,1.758c1.209,0,1.758-0.439,1.758-1.099v-0.056c0-0.906-1.428-1.208-3.048-1.702
			c-2.061-0.604-4.395-1.566-4.395-4.422v-0.056c0-2.993,2.417-4.669,5.383-4.669c1.868,0,3.9,0.632,5.493,1.703l-1.593,2.884
			c-1.456-0.852-2.911-1.373-3.982-1.373c-1.017,0-1.538,0.439-1.538,1.016v0.056c0,0.823,1.4,1.208,2.993,1.758
			c2.061,0.687,4.45,1.675,4.45,4.366v0.056c0,3.268-2.445,4.751-5.631,4.751C98.581,71.22,96.273,70.533,94.323,68.995z"/>
	</g>
	<g>
		<path fill="#5CE0FF" stroke="#5CE0FF" stroke-miterlimit="10" d="M3.447,51.717h4.532l3.982,13.02l4.312-13.074h3.626
			l4.312,13.074l3.982-13.02h4.422l-6.563,19.364h-3.681l-4.34-12.58l-4.339,12.58h-3.681L3.447,51.717z"/>
		<path fill="#5CE0FF" stroke="#5CE0FF" stroke-miterlimit="10" d="M34.619,56.222h4.174v2.966c0.852-2.032,2.226-3.351,4.697-3.24
			v4.367h-0.22c-2.774,0-4.478,1.675-4.478,5.19v5.438h-4.174V56.222z"/>
		<path fill="#5CE0FF" stroke="#5CE0FF" stroke-miterlimit="10" d="M46.455,50.894h4.395v3.707h-4.395V50.894z M46.564,56.222h4.175
			v14.722h-4.175V56.222z"/>
		<path fill="#5CE0FF" stroke="#5CE0FF" stroke-miterlimit="10" d="M55.628,66.769v-6.977H53.87v-3.57h1.758v-3.763h4.175v3.763
			h3.46v3.57h-3.46v6.29c0,0.961,0.412,1.428,1.346,1.428c0.769,0,1.455-0.191,2.06-0.521v3.351
			c-0.879,0.522-1.896,0.852-3.296,0.852C57.357,71.19,55.628,70.174,55.628,66.769z"/>
		<path fill="#5CE0FF" stroke="#5CE0FF" stroke-miterlimit="10" d="M65.898,63.665V63.61c0-4.202,2.994-7.663,7.278-7.663
			c4.917,0,7.169,3.817,7.169,7.992c0,0.33-0.027,0.714-0.055,1.099H70.046c0.412,1.896,1.73,2.884,3.599,2.884
			c1.4,0,2.416-0.439,3.57-1.511l2.39,2.115c-1.374,1.703-3.352,2.747-6.016,2.747C69.167,71.273,65.898,68.169,65.898,63.665z
			 M76.281,62.429c-0.248-1.867-1.347-3.131-3.104-3.131c-1.729,0-2.856,1.236-3.186,3.131H76.281z"/>
		<path fill="#5CE0FF" stroke="#5CE0FF" stroke-miterlimit="10" d="M83.723,56.222h4.176v2.966c0.851-2.032,2.225-3.351,4.696-3.24
			v4.367h-0.22c-2.774,0-4.477,1.675-4.477,5.19v5.438h-4.176V56.222z"/>
		<path fill="#5CE0FF" stroke="#5CE0FF" stroke-miterlimit="10" d="M94.323,68.993l1.785-2.746c1.594,1.153,3.269,1.758,4.642,1.758
			c1.209,0,1.758-0.439,1.758-1.099v-0.056c0-0.906-1.428-1.208-3.048-1.702c-2.061-0.604-4.395-1.566-4.395-4.422v-0.056
			c0-2.993,2.417-4.669,5.383-4.669c1.868,0,3.9,0.632,5.493,1.703l-1.593,2.884c-1.456-0.852-2.911-1.373-3.982-1.373
			c-1.017,0-1.538,0.439-1.538,1.016v0.056c0,0.823,1.4,1.208,2.993,1.758c2.061,0.687,4.45,1.675,4.45,4.366v0.056
			c0,3.268-2.445,4.751-5.631,4.751C98.581,71.218,96.273,70.531,94.323,68.993z"/>
	</g>
</g>
<g>
	<g>
		<path fill="none" stroke="#00B1E0" stroke-width="4.75" stroke-miterlimit="10" d="M63.664,41.726h-3.809v-2.539h10.373v2.539
			h-3.811v9.979h-2.754V41.726z"/>
		<path fill="none" stroke="#00B1E0" stroke-width="4.75" stroke-miterlimit="10" d="M69.891,46.966V46.93
			c0-2.735,1.949-4.989,4.74-4.989c3.201,0,4.666,2.486,4.666,5.204c0,0.215-0.018,0.465-0.035,0.716h-6.67
			c0.268,1.233,1.127,1.877,2.342,1.877c0.912,0,1.574-0.286,2.326-0.983l1.555,1.377c-0.895,1.109-2.182,1.789-3.916,1.789
			C72.02,51.92,69.891,49.898,69.891,46.966z M76.65,46.161c-0.16-1.216-0.875-2.039-2.02-2.039c-1.127,0-1.861,0.805-2.074,2.039
			H76.65z"/>
		<path fill="none" stroke="#00B1E0" stroke-width="4.75" stroke-miterlimit="10" d="M81.035,46.966V46.93
			c0-2.735,1.949-4.989,4.74-4.989c3.201,0,4.666,2.486,4.666,5.204c0,0.215-0.018,0.465-0.035,0.716h-6.67
			c0.268,1.233,1.127,1.877,2.342,1.877c0.912,0,1.574-0.286,2.326-0.983l1.555,1.377c-0.895,1.109-2.182,1.789-3.916,1.789
			C83.164,51.92,81.035,49.898,81.035,46.966z M87.795,46.161c-0.16-1.216-0.875-2.039-2.02-2.039c-1.127,0-1.861,0.805-2.074,2.039
			H87.795z"/>
		<path fill="none" stroke="#00B1E0" stroke-width="4.75" stroke-miterlimit="10" d="M92.645,42.119h2.719v1.359
			c0.627-0.805,1.432-1.538,2.809-1.538c2.057,0,3.254,1.359,3.254,3.559v6.206h-2.719v-5.348c0-1.287-0.607-1.949-1.645-1.949
			s-1.699,0.662-1.699,1.949v5.348h-2.719V42.119z"/>
	</g>
	<g>
		<linearGradient id="SVGID_1_" gradientUnits="userSpaceOnUse" x1="64.9775" y1="51.5184" x2="64.9775" y2="39.4257">
			<stop  offset="0" style="stop-color:#E6FFFF"/>
			<stop  offset="0.1846" style="stop-color:#D3FAFD"/>
			<stop  offset="0.5062" style="stop-color:#B7F3F9"/>
			<stop  offset="0.7888" style="stop-color:#A6EFF7"/>
			<stop  offset="1" style="stop-color:#A0EDF6"/>
		</linearGradient>
		<linearGradient id="SVGID_2_" gradientUnits="userSpaceOnUse" x1="64.9775" y1="52.1324" x2="64.9775" y2="38.8639">
			<stop  offset="0" style="stop-color:#E6FFFF"/>
			<stop  offset="0.3606" style="stop-color:#C7F7FB"/>
			<stop  offset="0.7664" style="stop-color:#ABF0F7"/>
			<stop  offset="1" style="stop-color:#A0EDF6"/>
		</linearGradient>
		<path fill="url(#SVGID_1_)" stroke="url(#SVGID_2_)" stroke-width="0.75" stroke-miterlimit="10" d="M63.601,41.778h-3.81v-2.539
			h10.373v2.539h-3.81v9.979h-2.754V41.778z"/>
		<linearGradient id="SVGID_3_" gradientUnits="userSpaceOnUse" x1="74.5302" y1="51.474" x2="74.5302" y2="39.3506">
			<stop  offset="0" style="stop-color:#E6FFFF"/>
			<stop  offset="0.1846" style="stop-color:#D3FAFD"/>
			<stop  offset="0.5062" style="stop-color:#B7F3F9"/>
			<stop  offset="0.7888" style="stop-color:#A6EFF7"/>
			<stop  offset="1" style="stop-color:#A0EDF6"/>
		</linearGradient>
		<linearGradient id="SVGID_4_" gradientUnits="userSpaceOnUse" x1="74.5302" y1="52.3473" x2="74.5302" y2="41.6178">
			<stop  offset="0" style="stop-color:#E6FFFF"/>
			<stop  offset="0.3606" style="stop-color:#C7F7FB"/>
			<stop  offset="0.7664" style="stop-color:#ABF0F7"/>
			<stop  offset="1" style="stop-color:#A0EDF6"/>
		</linearGradient>
		<path fill="url(#SVGID_3_)" stroke="url(#SVGID_4_)" stroke-width="0.75" stroke-miterlimit="10" d="M69.827,47.018v-0.036
			c0-2.735,1.949-4.989,4.739-4.989c3.201,0,4.667,2.486,4.667,5.204c0,0.215-0.018,0.465-0.035,0.716h-6.671
			c0.269,1.233,1.127,1.877,2.343,1.877c0.912,0,1.574-0.286,2.325-0.983l1.556,1.377c-0.895,1.109-2.182,1.789-3.916,1.789
			C71.955,51.972,69.827,49.951,69.827,47.018z M76.587,46.213c-0.161-1.216-0.876-2.039-2.021-2.039
			c-1.127,0-1.86,0.805-2.074,2.039H76.587z"/>
		<linearGradient id="SVGID_5_" gradientUnits="userSpaceOnUse" x1="85.6747" y1="51.4166" x2="85.6747" y2="39.2931">
			<stop  offset="0" style="stop-color:#E6FFFF"/>
			<stop  offset="0.1846" style="stop-color:#D3FAFD"/>
			<stop  offset="0.5062" style="stop-color:#B7F3F9"/>
			<stop  offset="0.7888" style="stop-color:#A6EFF7"/>
			<stop  offset="1" style="stop-color:#A0EDF6"/>
		</linearGradient>
		<linearGradient id="SVGID_6_" gradientUnits="userSpaceOnUse" x1="85.6747" y1="52.3473" x2="85.6747" y2="41.6178">
			<stop  offset="0" style="stop-color:#E6FFFF"/>
			<stop  offset="0.3606" style="stop-color:#C7F7FB"/>
			<stop  offset="0.7664" style="stop-color:#ABF0F7"/>
			<stop  offset="1" style="stop-color:#A0EDF6"/>
		</linearGradient>
		<path fill="url(#SVGID_5_)" stroke="url(#SVGID_6_)" stroke-width="0.75" stroke-miterlimit="10" d="M80.972,47.018v-0.036
			c0-2.735,1.949-4.989,4.739-4.989c3.201,0,4.667,2.486,4.667,5.204c0,0.215-0.018,0.465-0.035,0.716h-6.671
			c0.269,1.233,1.127,1.877,2.343,1.877c0.912,0,1.574-0.286,2.325-0.983l1.556,1.377c-0.895,1.109-2.182,1.789-3.916,1.789
			C83.1,51.972,80.972,49.951,80.972,47.018z M87.731,46.213c-0.161-1.216-0.876-2.039-2.021-2.039c-1.127,0-1.86,0.805-2.074,2.039
			H87.731z"/>
		<linearGradient id="SVGID_7_" gradientUnits="userSpaceOnUse" x1="96.9716" y1="51.338" x2="96.9716" y2="39.2335">
			<stop  offset="0" style="stop-color:#E6FFFF"/>
			<stop  offset="0.1846" style="stop-color:#D3FAFD"/>
			<stop  offset="0.5062" style="stop-color:#B7F3F9"/>
			<stop  offset="0.7888" style="stop-color:#A6EFF7"/>
			<stop  offset="1" style="stop-color:#A0EDF6"/>
		</linearGradient>
		<linearGradient id="SVGID_8_" gradientUnits="userSpaceOnUse" x1="96.9716" y1="52.1324" x2="96.9716" y2="41.6178">
			<stop  offset="0" style="stop-color:#E6FFFF"/>
			<stop  offset="0.3606" style="stop-color:#C7F7FB"/>
			<stop  offset="0.7664" style="stop-color:#ABF0F7"/>
			<stop  offset="1" style="stop-color:#A0EDF6"/>
		</linearGradient>
		<path fill="url(#SVGID_7_)" stroke="url(#SVGID_8_)" stroke-width="0.75" stroke-miterlimit="10" d="M92.581,42.171H95.3v1.359
			c0.626-0.805,1.431-1.538,2.808-1.538c2.057,0,3.255,1.359,3.255,3.559v6.206h-2.719V46.41c0-1.287-0.607-1.949-1.646-1.949
			c-1.037,0-1.698,0.662-1.698,1.949v5.348h-2.719V42.171z"/>
	</g>
</g>
<path fill="#FFFFFF" stroke="#FF6000" stroke-width="2" d="M58.191,29.938c0-6.3-4.235-11.062-11.589-11.062
	c-4.792,0-8.805,1.942-11.711,4.856c-1.713-1.677-4.05-2.781-6.788-3.432l14.95-11.378l2.117-7.672H13.881l-2.382,8.73h17.531
	L15.403,20.895l0.398,6.349h2.844c5.62,0,9.061,1.92,9.061,5.492c0,3.373-3.772,6.481-8.731,6.481
	c-4.829,0-7.607-1.917-10.054-5.225l-7.542,5.555c3.043,5.226,8.466,8.798,17.133,8.798c5.41,0,10.183-1.733,13.648-4.594
	c2.226,2.978,5.923,4.65,10.738,4.65c4.816,0,8.36-1.639,10.9-3.756l-3.703-4.975c-2.331,1.64-4.181,2.277-6.298,2.277
	c-4.233,0-6.242-2.225-6.509-5.556h19.475C57.66,34.221,58.191,31.945,58.191,29.938z M50.358,31.363H38.031
	c1.322-3.598,4.284-6.031,7.938-6.031c3.278,0,4.654,1.852,4.654,4.18C50.622,30.2,50.517,30.836,50.358,31.363z"/>
<g>
	<path fill="#FFC988" stroke="#FFAF50" stroke-width="0.75" stroke-miterlimit="10" d="M56.28,30.5l-1.257,0.11l-0.218-2.491
		l1.257-0.11l-0.06-0.678c-0.103-1.175,0.12-2.059,0.629-2.665c0.51-0.607,1.303-0.958,2.379-1.052
		c0.956-0.083,1.604-0.02,2.178,0.111l0.22,2.511c-0.451-0.121-0.88-0.185-1.396-0.139c-0.698,0.061-1.065,0.455-0.996,1.251
		l0.037,0.419l2.451-0.214l0.216,2.471l-2.411,0.211l0.708,8.09l-3.028,0.266L56.28,30.5z"/>
	<path fill="#FFC988" stroke="#FFAF50" stroke-width="0.75" stroke-miterlimit="10" d="M62.493,32.687l-0.004-0.04
		c-0.269-3.069,1.984-5.776,5.313-6.067c3.309-0.29,5.975,1.947,6.243,5.016l0.003,0.04c0.269,3.069-1.984,5.776-5.313,6.067
		C65.428,37.993,62.762,35.755,62.493,32.687z M71.063,31.937l-0.004-0.04c-0.138-1.574-1.395-2.85-3.068-2.704
		c-1.734,0.152-2.653,1.577-2.516,3.151l0.003,0.04c0.138,1.574,1.396,2.851,3.068,2.704C70.281,34.938,71.201,33.512,71.063,31.937
		z"/>
	<path fill="#FFC988" stroke="#FFAF50" stroke-width="0.75" stroke-miterlimit="10" d="M74.581,26.288l3.029-0.265l0.188,2.152
		c0.489-1.528,1.401-2.572,3.201-2.649l0.277,3.168l-0.159,0.014c-2.013,0.176-3.142,1.5-2.919,4.05l0.346,3.946l-3.029,0.265
		L74.581,26.288z"/>
</g>
</svg>
