<?xml version="1.0" encoding="utf-8"?>
<!-- Generator: Adobe Illustrator 14.0.0, SVG Export Plug-In . SVG Version: 6.00 Build 43363)  -->
<!DOCTYPE svg PUBLIC "-//W3C//DTD SVG 1.1//EN" "http://www.w3.org/Graphics/SVG/1.1/DTD/svg11.dtd">
<svg version="1.1" id="Icon" xmlns="http://www.w3.org/2000/svg" xmlns:xlink="http://www.w3.org/1999/xlink" x="0px" y="0px"
	 width="55px" height="55px" viewBox="-30 -30 100 100" enable-background="new -30 -30 100 100" xml:space="preserve">
<rect x="-30" y="-30" fill="#32C5F4" width="100" height="100"/>
<path fill="#FFFFFF" d="M54.355-0.537c-2.439,1.079-5.054,1.809-7.803,2.139c2.808-1.685,4.956-4.346,5.975-7.515
	c-2.623,1.556-5.53,2.686-8.629,3.294c-2.473-2.64-6.006-4.29-9.914-4.29c-7.498,0-13.579,6.081-13.579,13.587
	c0,1.062,0.12,2.1,0.349,3.096C9.465,9.204-0.542,3.794-7.238-4.419C-8.41-2.412-9.077-0.08-9.077,2.41
	c0,4.709,2.397,8.867,6.04,11.301c-2.227-0.068-4.321-0.679-6.152-1.699c0,0.057,0,0.112,0,0.171c0,6.582,4.683,12.07,10.894,13.317
	c-1.143,0.313-2.339,0.472-3.579,0.472c-0.877,0-1.727-0.083-2.554-0.239c1.724,5.396,6.741,9.321,12.683,9.434
	c-4.646,3.643-10.505,5.815-16.867,5.815c-1.094,0-2.178-0.063-3.242-0.195c6.014,3.857,13.149,6.106,20.82,6.106
	c24.982,0,38.645-20.696,38.645-38.646c0-0.591-0.012-1.175-0.041-1.753C50.229,4.578,52.534,2.186,54.355-0.537z"/>
</svg>
